# Blender 4.1.1
# www.blender.org
mtllib Player.mtl
o 立方体
v -0.239493 0.241640 -0.237217
v -0.502382 1.641640 -0.497607
v 0.237217 0.241640 -0.239493
v 0.497607 1.641640 -0.502382
v -0.237217 0.241640 0.239493
v -0.497607 1.641640 0.502382
v 0.239493 0.241640 0.237217
v 0.502382 1.641640 0.497607
v 0.401905 2.654763 0.398086
v 0.401905 1.854763 0.398086
v -0.398086 2.654763 0.401905
v -0.398086 1.854763 0.401905
v 0.398086 2.654763 -0.401905
v 0.398086 1.854763 -0.401905
v -0.401905 2.654763 -0.398086
v -0.401905 1.854763 -0.398086
v 0.676838 1.353071 -0.167507
v 1.588604 0.999724 -0.349970
v 0.504477 1.074636 -0.167034
v 1.227043 0.415653 -0.348978
v 0.677804 1.353030 0.159959
v 1.590630 0.999638 0.336953
v 0.505443 1.074594 0.160433
v 1.229069 0.415566 0.337946
v -0.503977 1.068067 -0.160409
v -1.236272 0.418722 -0.338061
v -0.672635 1.348762 -0.159877
v -1.590063 1.007532 -0.336944
v -0.503012 1.068026 0.167057
v -1.234246 0.418636 0.348862
v -0.671669 1.348721 0.167590
v -1.588037 1.007446 0.349979
vn -0.0047 -0.1837 -0.9830
vn 0.9830 -0.1837 -0.0047
vn 0.0047 -0.1837 0.9830
vn -0.9830 -0.1837 0.0047
vn -0.0000 -1.0000 -0.0000
vn -0.0000 1.0000 -0.0000
vn -1.0000 -0.0000 0.0048
vn -0.0048 -0.0000 -1.0000
vn 0.0048 -0.0000 1.0000
vn 1.0000 -0.0000 -0.0048
vn -0.1591 0.0968 -0.9825
vn -0.6736 -0.7391 0.0019
vn -0.1533 0.0966 0.9834
vn 0.3612 0.9325 -0.0009
vn -0.8503 0.5263 0.0026
vn 0.8503 -0.5263 -0.0026
vn 0.1546 0.0947 -0.9834
vn -0.3488 0.9372 0.0011
vn 0.1604 0.0945 0.9825
vn 0.6637 -0.7480 -0.0021
vn 0.8572 0.5150 -0.0025
vn -0.8572 -0.5150 0.0025
vt 0.375000 0.000000
vt 0.625000 0.000000
vt 0.625000 0.250000
vt 0.375000 0.250000
vt 0.625000 0.500000
vt 0.375000 0.500000
vt 0.625000 0.750000
vt 0.375000 0.750000
vt 0.625000 1.000000
vt 0.375000 1.000000
vt 0.125000 0.500000
vt 0.125000 0.750000
vt 0.875000 0.500000
vt 0.875000 0.750000
vt 0.000000 0.000000
s 0
usemtl Material
f 1/1/1 2/2/1 4/3/1 3/4/1
f 3/4/2 4/3/2 8/5/2 7/6/2
f 7/6/3 8/5/3 6/7/3 5/8/3
f 5/8/4 6/7/4 2/9/4 1/10/4
f 3/11/5 7/6/5 5/8/5 1/12/5
f 8/5/6 4/13/6 2/14/6 6/7/6
f 9/15/6 13/15/6 15/15/6 11/15/6
f 12/15/7 11/15/7 15/15/7 16/15/7
f 16/15/8 15/15/8 13/15/8 14/15/8
f 14/15/5 10/15/5 12/15/5 16/15/5
f 10/15/9 9/15/9 11/15/9 12/15/9
f 14/15/10 13/15/10 9/15/10 10/15/10
f 17/1/11 18/2/11 20/3/11 19/4/11
f 19/4/12 20/3/12 24/5/12 23/6/12
f 23/6/13 24/5/13 22/7/13 21/8/13
f 21/8/14 22/7/14 18/9/14 17/10/14
f 19/11/15 23/6/15 21/8/15 17/12/15
f 24/5/16 20/13/16 18/14/16 22/7/16
f 25/1/17 26/2/17 28/3/17 27/4/17
f 27/4/18 28/3/18 32/5/18 31/6/18
f 31/6/19 32/5/19 30/7/19 29/8/19
f 29/8/20 30/7/20 26/9/20 25/10/20
f 27/11/21 31/6/21 29/8/21 25/12/21
f 32/5/22 28/13/22 26/14/22 30/7/22
