# Blender 4.1.1
# www.blender.org
mtllib Player.mtl
o 立方体.002
v -0.232592 0.258053 -0.260796
v 0.244012 0.258053 -0.250506
v -0.488526 1.658053 -0.528026
v -0.242882 0.258053 0.215808
v 0.233722 0.258053 0.226098
v -0.510111 1.658053 0.471742
v 0.489656 1.658053 0.493327
v 0.511241 1.658053 -0.506441
v -0.405508 2.640490 0.365233
v 0.393879 2.623057 0.391258
v -0.423215 1.840727 0.373428
v -0.379669 2.631726 -0.434301
v 0.419717 2.614293 -0.408277
v -0.397377 1.831963 -0.426107
v 0.402010 1.814531 -0.400082
v 0.376171 1.823295 0.399452
v 0.681583 1.369484 -0.166958
v 0.509269 1.091049 -0.171028
v 1.597842 1.016138 -0.325325
v 0.673917 1.369443 0.160420
v 0.501603 1.091008 0.156350
v 1.581761 1.016051 0.361413
v 1.220299 0.431980 0.352875
v 1.236380 0.432066 -0.333863
v -0.499009 1.084481 -0.190987
v -0.667622 1.365175 -0.194900
v -1.226366 0.435136 -0.387879
v -0.506675 1.084440 0.136392
v -0.675288 1.365134 0.132478
v -1.242447 0.435049 0.298859
v -1.596145 1.023859 0.290651
v -1.580064 1.023946 -0.396087
vn -0.0000 -1.0000 -0.0000
vn 0.0212 -0.1837 -0.9828
vn -0.9828 -0.1837 -0.0212
vn -0.0212 -0.1837 0.9828
vn -0.0000 1.0000 -0.0000
vn 0.9828 -0.1837 0.0212
vn 0.0221 0.9997 -0.0102
vn -0.0323 0.0110 0.9994
vn -0.9992 0.0218 -0.0325
vn 0.0323 -0.0110 -0.9994
vn -0.0221 -0.9997 0.0102
vn 0.9992 -0.0218 0.0325
vn -0.1331 0.0968 -0.9864
vn -0.8500 0.5263 -0.0198
vn 0.3611 0.9325 0.0086
vn -0.1792 0.0966 0.9791
vn 0.8500 -0.5263 0.0198
vn -0.6734 -0.7391 -0.0159
vn 0.1804 0.0947 -0.9790
vn 0.8569 0.5150 0.0201
vn 0.6636 -0.7480 0.0154
vn 0.1344 0.0945 0.9864
vn -0.8569 -0.5150 -0.0201
vn -0.3487 0.9372 -0.0080
vt 0.341480 0.450879
vt 0.467919 0.462416
vt 0.398931 0.519866
vt 0.011463 0.626600
vt 0.297416 0.529098
vt 0.284030 0.617871
vt 0.276691 0.155788
vt 0.495370 0.364248
vt 0.410468 0.393428
vt 0.131977 0.276302
vt 0.156177 0.011074
vt 0.737531 0.888190
vt 0.888190 0.737531
vt 0.888190 0.888190
vt 0.798366 0.618778
vt 0.949025 0.468119
vt 0.949025 0.618778
vt 0.975097 0.195231
vt 0.824438 0.345890
vt 0.824438 0.195231
vt 0.639636 0.163385
vt 0.488977 0.012726
vt 0.639636 0.012726
vt 0.662791 0.172076
vt 0.813450 0.021417
vt 0.813450 0.172076
vt 0.989002 0.012726
vt 0.838343 0.163385
vt 0.838343 0.012726
vt 0.612312 0.321885
vt 0.780256 0.443807
vt 0.603116 0.382866
vt 0.572847 0.436597
vt 0.485994 0.428671
vt 0.533383 0.389207
vt 0.617353 0.639302
vt 0.467137 0.496105
vt 0.525458 0.476061
vt 0.716761 0.556518
vt 0.799545 0.655926
vt 0.549253 0.971621
vt 0.482276 0.775192
vt 0.543256 0.784388
vt 0.428545 0.744923
vt 0.436470 0.658070
vt 0.475935 0.705459
vt 0.389081 0.697534
vt 0.183793 0.667088
vt 0.369036 0.639212
vt 0.225840 0.789429
vt 0.308624 0.888837
vt 0.126432 0.872213
vt 0.421334 0.952332
vt 0.039544 0.440381
vt 0.454790 0.094578
vt 0.011463 0.131587
vt 0.737531 0.737531
vt 0.798366 0.468119
vt 0.975097 0.345890
vt 0.488977 0.163385
vt 0.662791 0.021417
vt 0.989002 0.163385
vt 0.799545 0.315889
vt 0.495012 0.681349
vt 0.700137 0.738710
vt 0.209216 0.971621
s 0
usemtl マテリアル.001
f 5/1/1 1/2/1 2/3/1
f 3/4/2 2/5/2 1/6/2
f 6/7/3 1/8/3 4/9/3
f 7/10/4 4/9/4 5/1/4
f 7/10/5 3/11/5 6/7/5
f 2/5/6 7/10/6 5/1/6
f 12/12/7 10/13/7 13/14/7
f 9/15/8 16/16/8 10/17/8
f 12/18/9 11/19/9 9/20/9
f 14/21/10 13/22/10 15/23/10
f 16/24/11 14/25/11 15/26/11
f 10/27/12 15/28/12 13/29/12
f 17/30/13 24/31/13 18/32/13
f 21/33/14 17/34/14 18/35/14
f 22/36/15 17/37/15 20/38/15
f 23/39/16 20/38/16 21/33/16
f 24/40/17 22/36/17 23/39/17
f 24/31/18 21/33/18 18/32/18
f 27/41/19 26/42/19 25/43/19
f 29/44/20 25/45/20 26/46/20
f 28/47/21 27/48/21 25/49/21
f 29/44/22 30/50/22 28/47/22
f 31/51/23 27/52/23 30/50/23
f 32/53/24 29/44/24 26/42/24
f 5/1/1 4/9/1 1/2/1
f 3/4/2 8/54/2 2/5/2
f 6/7/3 3/55/3 1/8/3
f 7/10/4 6/7/4 4/9/4
f 7/10/5 8/56/5 3/11/5
f 2/5/6 8/54/6 7/10/6
f 12/12/7 9/57/7 10/13/7
f 9/15/8 11/58/8 16/16/8
f 12/18/9 14/59/9 11/19/9
f 14/21/10 12/60/10 13/22/10
f 16/24/11 11/61/11 14/25/11
f 10/27/12 16/62/12 15/28/12
f 17/30/13 19/63/13 24/31/13
f 21/33/14 20/38/14 17/34/14
f 22/36/15 19/64/15 17/37/15
f 23/39/16 22/36/16 20/38/16
f 24/40/17 19/65/17 22/36/17
f 24/31/18 23/39/18 21/33/18
f 27/41/19 32/53/19 26/42/19
f 29/44/20 28/47/20 25/45/20
f 28/47/21 30/50/21 27/48/21
f 29/44/22 31/51/22 30/50/22
f 31/51/23 32/66/23 27/52/23
f 32/53/24 31/51/24 29/44/24
